<svg xmlns="http://www.w3.org/2000/svg" xmlns:xlink="http://www.w3.org/1999/xlink" version="1.1" width="595pt" height="842pt" viewBox="0 0 595 842">
<text xml:space="preserve" transform="matrix(1 0 -0 1 0 842)" font-size="14" font-family="Times" font-weight="bold"><tspan y="-785" x="211.36 221.468 226.914 237.022 240.522 250.63 258.414 263.86003 273.96803 277.46803 286.80604 296.91404 307.02204 317.91404 321.41404 330.75205 336.19807 349.41407 354.86009 364.1981 373.5361">NIC ASIA BANK LIMITED</tspan></text>
<text xml:space="preserve" transform="matrix(1 0 -0 1 0 842)" font-size="12" font-family="Times" font-weight="bold"><tspan y="-767" x="255.67 263.00199 269.00199 275.00199 284.998 290.326 296.998 300.994 303.994 312.658 317.986 321.982 327.982 331.318 334.654">Payment Details</tspan></text>
<text xml:space="preserve" transform="matrix(1 0 -0 1 0 842)" font-size="12" font-family="Helvetica"><tspan y="-749" x="207.44 215.444 221.444 224.78 231.452 234.788 238.124 248.12 254.79199 261.464 264.8 268.136 274.136 280.80799 287.47999 290.81599 297.48799 304.15998 307.49598 310.83198 317.50398 324.17597 330.84797 337.51997 340.85597 347.52796 354.19996 357.53596 364.20796 370.87995 374.21595 380.88795">As of Mon, Jun 19, 2023 22:57:24</tspan><tspan y="-731" x="36"> </tspan></text>
<path transform="matrix(1,0,0,-1,0,842)" stroke-width=".5" stroke-linecap="square" stroke-miterlimit="10" stroke-linejoin="miter" fill="none" stroke="#000000" d="M36 699H297.5V731H36Z"/>
<path transform="matrix(1,0,0,-1,0,842)" stroke-width=".5" stroke-linecap="square" stroke-miterlimit="10" stroke-linejoin="miter" fill="none" stroke="#000000" d="M297.5 699H559V731H297.5Z"/>
<path transform="matrix(1,0,0,-1,0,842)" stroke-width=".5" stroke-linecap="square" stroke-miterlimit="10" stroke-linejoin="miter" fill="none" stroke="#000000" d="M36 667H297.5V699H36Z"/>
<path transform="matrix(1,0,0,-1,0,842)" stroke-width=".5" stroke-linecap="square" stroke-miterlimit="10" stroke-linejoin="miter" fill="none" stroke="#000000" d="M297.5 667H559V699H297.5Z"/>
<path transform="matrix(1,0,0,-1,0,842)" stroke-width=".5" stroke-linecap="square" stroke-miterlimit="10" stroke-linejoin="miter" fill="none" stroke="#000000" d="M36 635H297.5V667H36Z"/>
<path transform="matrix(1,0,0,-1,0,842)" stroke-width=".5" stroke-linecap="square" stroke-miterlimit="10" stroke-linejoin="miter" fill="none" stroke="#000000" d="M297.5 635H559V667H297.5Z"/>
<path transform="matrix(1,0,0,-1,0,842)" stroke-width=".5" stroke-linecap="square" stroke-miterlimit="10" stroke-linejoin="miter" fill="none" stroke="#000000" d="M36 603H297.5V635H36Z"/>
<path transform="matrix(1,0,0,-1,0,842)" stroke-width=".5" stroke-linecap="square" stroke-miterlimit="10" stroke-linejoin="miter" fill="none" stroke="#000000" d="M297.5 603H559V635H297.5Z"/>
<path transform="matrix(1,0,0,-1,0,842)" stroke-width=".5" stroke-linecap="square" stroke-miterlimit="10" stroke-linejoin="miter" fill="none" stroke="#000000" d="M36 571H297.5V603H36Z"/>
<path transform="matrix(1,0,0,-1,0,842)" stroke-width=".5" stroke-linecap="square" stroke-miterlimit="10" stroke-linejoin="miter" fill="none" stroke="#000000" d="M297.5 571H559V603H297.5Z"/>
<path transform="matrix(1,0,0,-1,0,842)" stroke-width=".5" stroke-linecap="square" stroke-miterlimit="10" stroke-linejoin="miter" fill="none" stroke="#000000" d="M36 539H297.5V571H36Z"/>
<path transform="matrix(1,0,0,-1,0,842)" stroke-width=".5" stroke-linecap="square" stroke-miterlimit="10" stroke-linejoin="miter" fill="none" stroke="#000000" d="M297.5 539H559V571H297.5Z"/>
<path transform="matrix(1,0,0,-1,0,842)" stroke-width=".5" stroke-linecap="square" stroke-miterlimit="10" stroke-linejoin="miter" fill="none" stroke="#000000" d="M36 507H297.5V539H36Z"/>
<path transform="matrix(1,0,0,-1,0,842)" stroke-width=".5" stroke-linecap="square" stroke-miterlimit="10" stroke-linejoin="miter" fill="none" stroke="#000000" d="M297.5 507H559V539H297.5Z"/>
<path transform="matrix(1,0,0,-1,0,842)" stroke-width=".5" stroke-linecap="square" stroke-miterlimit="10" stroke-linejoin="miter" fill="none" stroke="#000000" d="M36 475H297.5V507H36Z"/>
<path transform="matrix(1,0,0,-1,0,842)" stroke-width=".5" stroke-linecap="square" stroke-miterlimit="10" stroke-linejoin="miter" fill="none" stroke="#000000" d="M297.5 475H559V507H297.5Z"/>
<path transform="matrix(1,0,0,-1,0,842)" stroke-width=".5" stroke-linecap="square" stroke-miterlimit="10" stroke-linejoin="miter" fill="none" stroke="#000000" d="M36 443H297.5V475H36Z"/>
<path transform="matrix(1,0,0,-1,0,842)" stroke-width=".5" stroke-linecap="square" stroke-miterlimit="10" stroke-linejoin="miter" fill="none" stroke="#000000" d="M297.5 443H559V475H297.5Z"/>
<path transform="matrix(1,0,0,-1,0,842)" stroke-width=".5" stroke-linecap="square" stroke-miterlimit="10" stroke-linejoin="miter" fill="none" stroke="#000000" d="M36 411H297.5V443H36Z"/>
<path transform="matrix(1,0,0,-1,0,842)" stroke-width=".5" stroke-linecap="square" stroke-miterlimit="10" stroke-linejoin="miter" fill="none" stroke="#000000" d="M297.5 411H559V443H297.5Z"/>
<path transform="matrix(1,0,0,-1,0,842)" stroke-width=".5" stroke-linecap="square" stroke-miterlimit="10" stroke-linejoin="miter" fill="none" stroke="#000000" d="M36 379H297.5V411H36Z"/>
<path transform="matrix(1,0,0,-1,0,842)" stroke-width=".5" stroke-linecap="square" stroke-miterlimit="10" stroke-linejoin="miter" fill="none" stroke="#000000" d="M297.5 379H559V411H297.5Z"/>
<text xml:space="preserve" transform="matrix(1 0 -0 1 0 842)" font-size="12" font-family="Times" font-weight="bold"><tspan y="-709" x="46 54.004 63.340005 68.008">BOID</tspan></text>
<text xml:space="preserve" transform="matrix(1 0 -0 1 0 842)" font-size="12" font-family="Helvetica"><tspan y="-709" x="307.5 314.172 320.844 327.516 334.188 340.86 347.53199 354.20399 360.87599 367.54798 374.21998 380.89198 387.56398 394.23597 400.90797 407.57997">1301370003063808</tspan></text>
<text xml:space="preserve" transform="matrix(1 0 -0 1 0 842)" font-size="12" font-family="Times" font-weight="bold"><tspan y="-677" x="46 54.664 63.328004 74.656009">NAME</tspan></text>
<text xml:space="preserve" transform="matrix(1 0 -0 1 0 842)" font-size="12" font-family="Helvetica"><tspan y="-677" x="307.5 315.504 323.508 332.172 335.508 342.84 346.176 352.176 355.512 363.516 372.18 380.844 384.18 392.184 400.188 408.852 416.856">KSHITIJ ADHIKAREE</tspan></text>
<text xml:space="preserve" transform="matrix(1 0 -0 1 0 842)" font-size="12" font-family="Times" font-weight="bold"><tspan y="-645" x="46 54.664 64.66 70.66 77.332 84.004">Amount</tspan></text>
<text xml:space="preserve" transform="matrix(1 0 -0 1 0 842)" font-size="12" font-family="Helvetica"><tspan y="-645" x="307.5 316.164 322.164 325.5 328.836 335.508 342.18 348.852 352.188">Rs. 150.0</tspan></text>
<text xml:space="preserve" transform="matrix(1 0 -0 1 0 842)" font-size="12" font-family="Times" font-weight="bold"><tspan y="-613" x="46 54.004 59.332 65.332 72.004 76.672 82.672 88 91.996 95.332 101.332 108.004 111.004 117.675998 121.672 127.672 131.668 138.34">Transaction Status</tspan></text>
<text xml:space="preserve" transform="matrix(1 0 -0 1 0 842)" font-size="12" font-family="Helvetica"><tspan y="-613" x="307.5 314.832 323.496 331.5 340.164 348.168 356.172 364.836 372.168 375.504 384.84 393.504 396.84 404.844 413.508 422.172 430.836 438.84 446.844">TRANSACTION SUCCESS</tspan></text>
<text xml:space="preserve" transform="matrix(1 0 -0 1 0 842)" font-size="12" font-family="Times" font-weight="bold"><tspan y="-581" x="46 53.332 59.332 65.332 75.328 80.656009 87.328 91.324008 94.324008 102.328 108.328 115">Payment Type</tspan></text>
<text xml:space="preserve" transform="matrix(1 0 -0 1 0 842)" font-size="12" font-family="Helvetica"><tspan y="-581" x="307.5 317.496 324.168 328.164 334.836 340.836 347.508 354.18 358.176 364.848 368.184 374.856 381.52799 388.19999 391.53599 400.19999 406.87199 416.86799 423.53999 426.87599 430.21199 438.87599 445.54798 452.21998 458.89198 467.55598 474.22798">Meroshare and Demat Renewal</tspan></text>
<text xml:space="preserve" transform="matrix(1 0 -0 1 0 842)" font-size="12" font-family="Times" font-weight="bold"><tspan y="-549" x="46 54.664 59.992 66.664 71.992008 80.656009 85.98401 92.656009 95.656009 104.32001 107.656009">Renewed Via</tspan></text>
<text xml:space="preserve" transform="matrix(1 0 -0 1 0 842)" font-size="12" font-family="Helvetica"><tspan y="-549" x="307.5 316.164 324.828 333.492">NCHL</tspan></text>
<text xml:space="preserve" transform="matrix(1 0 -0 1 0 842)" font-size="12" font-family="Times" font-weight="bold"><tspan y="-517" x="46 54.664 59.992 63.988 69.316 74.644008 79.97201 86.64401 91.972019 97.30002 100.30002 104.96802">Reference Id</tspan></text>
<text xml:space="preserve" transform="matrix(1 0 -0 1 0 842)" font-size="12" font-family="Helvetica"><tspan y="-517" x="307.5 315.504 324.168 332.832 339.504 346.176 352.848 359.52 366.192 372.86399 379.53599 383.53199 390.20399 396.87599 403.54798 410.21998 416.89198 423.56398 430.23597 436.90797">VCR1913700-03063808B</tspan></text>
<text xml:space="preserve" transform="matrix(1 0 -0 1 0 842)" font-size="12" font-family="Times" font-weight="bold"><tspan y="-485" x="46 54.664 59.992 63.988 69.316 74.644008 79.97201 86.64401 91.972019 97.30002 100.30002 108.96402 114.96402 121.63602">Reference Code</tspan></text>
<text xml:space="preserve" transform="matrix(1 0 -0 1 0 842)" font-size="12" font-family="Helvetica"><tspan y="-485" x="307.5 315.504 324.168 332.832 339.504 346.176 352.848 359.52 366.192 372.86399 379.53599 383.53199 390.20399 396.87599 403.54798 410.21998 416.89198 423.56398 430.23597 436.90797">VCR1913700-03063808B</tspan></text>
<text xml:space="preserve" transform="matrix(1 0 -0 1 0 842)" font-size="12" font-family="Times" font-weight="bold"><tspan y="-453" x="46 54.664 59.992 66.664 71.992008 80.656009 85.98401 92.656009 95.656009 104.32001 110.32001 114.31601">Renewed Date</tspan></text>
<text xml:space="preserve" transform="matrix(1 0 -0 1 0 842)" font-size="12" font-family="Helvetica"><tspan y="-453" x="307.5 314.172 320.844 327.516 334.188 338.184 344.856 351.52799 355.524 362.19599 368.86799 372.20399 380.20799 383.54399 392.20799">2023-06-19 A.D.</tspan></text>
<text xml:space="preserve" transform="matrix(1 0 -0 1 0 842)" font-size="12" font-family="Times" font-weight="bold"><tspan y="-421" x="46 57.328004 62.656003 67.984 73.984 78.652 85.324008 91.324008 96.65201 101.98001 104.98001 112.98401 118.98401 125.656009 128.992 134.32 140.32 143.32 151.98401 157.98401 161.98001">Meroshare Expiry Date</tspan></text>
<text xml:space="preserve" transform="matrix(1 0 -0 1 0 842)" font-size="12" font-family="Helvetica"><tspan y="-421" x="307.5 314.172 320.844 327.516 334.188 338.184 344.856 351.52799 355.524 362.19599 368.86799 372.20399 380.20799 383.54399 392.20799">2025-03-06 A.D.</tspan></text>
<text xml:space="preserve" transform="matrix(1 0 -0 1 0 842)" font-size="12" font-family="Times" font-weight="bold"><tspan y="-389" x="46 54.664 59.992 69.988 75.988 79.984 82.984 90.988 96.988 103.66 106.996 112.324008 118.324008 121.324008 129.988 135.988 139.98401">Demat Expiry Date</tspan></text>
<text xml:space="preserve" transform="matrix(1 0 -0 1 0 842)" font-size="12" font-family="Helvetica"><tspan y="-389" x="307.5 314.172 320.844 327.516 334.188 338.184 344.856 351.52799 355.524 362.19599 368.86799 372.20399 380.20799 383.54399 391.54798">2080-03-31 B.S.</tspan></text>
</svg>
